<svg width="512" height="49" viewBox="0 0 512 49" fill="none" xmlns="http://www.w3.org/2000/svg">
<path d="M13.4979 9.37989C18.615 8.23134 21.1783 6.81198 21.1783 5.10782H21.351L21.4351 6.11164C21.4351 8.44144 20.576 10.0569 18.8578 10.9533L19.6609 11.1821V11.4669C22.3735 12.8022 23.7275 14.9266 23.7275 17.826C23.7275 23.5781 20.0671 26.4495 12.7509 26.4495C8.68422 26.4495 6.64856 27.1265 6.64856 28.4852C6.64856 29.8438 8.68422 30.5208 12.7509 30.5208C16.4767 30.5208 19.4554 31.2165 21.6919 32.6125C24.1944 34.1766 25.4457 36.4644 25.4457 39.4618C25.4457 45.4241 21.2156 48.4028 12.7509 48.4028C4.28608 48.4028 0 45.4241 0 39.4665C0 35.8761 2.1197 33.3735 6.35909 31.9589C4.81367 31.1932 4.03863 30.0399 4.03863 28.4898C4.03863 27.2853 4.71562 26.2347 6.07428 25.3383C3.18888 23.8863 1.74618 21.3837 1.74618 17.8307C1.74618 12.0599 5.41596 9.17913 12.7509 9.17913L13.4979 9.37989ZM10.1456 32.5612C6.85866 33.8591 5.2152 36.1609 5.2152 39.4665C5.2152 43.8786 7.72709 46.0871 12.7509 46.0871C17.7746 46.0871 20.2585 43.8786 20.2585 39.4665C20.2585 35.61 17.938 33.3922 13.2971 32.8179L10.1456 32.5612ZM16.8222 12.7882C15.809 11.719 14.455 11.1821 12.7509 11.1821C8.88965 11.1821 6.96138 13.3998 6.96138 17.8307C6.96138 22.2615 8.88965 24.4512 12.7509 24.4512C16.6121 24.4512 18.5123 22.2428 18.5123 17.8307C18.5123 15.6129 17.9474 13.9321 16.8222 12.7882Z" fill="#4A180E"/>
<path d="M25.9313 10.8693H37.3048C38.2619 10.8693 39.3778 11.1261 40.6571 11.6443C42.5293 12.4847 43.8553 13.792 44.6397 15.5709C44.8498 16.0845 45.0132 16.5934 45.1253 17.0883C45.298 17.91 45.3821 18.5497 45.3821 19.0072L45.4101 19.7542C48.5243 19.1053 50.3591 18.7037 50.9101 18.5497C52.0773 18.1295 52.8477 17.5272 53.2305 16.7428C53.422 16.3413 53.5153 15.9771 53.5153 15.6549V15.5709H53.5434C53.7721 16.1265 53.8889 16.6681 53.8889 17.205C53.8889 18.601 53.1325 19.8103 51.6244 20.8421C51.1669 21.1456 50.658 21.3977 50.107 21.5891C49.6681 21.7245 49.0658 21.8459 48.3001 21.9626C47.2683 22.1541 46.3018 22.3268 45.4054 22.4762V31.5293C45.4054 32.3697 45.5501 33.2008 45.8349 34.0225C45.989 34.3867 46.2178 34.7275 46.5213 35.0543C46.9415 35.3998 47.371 35.5726 47.8099 35.5726H49.1265L49.1546 35.6006V37.09L49.1265 37.118H44.5977C42.8422 37.118 41.6189 36.1702 40.9279 34.2793C40.7925 33.9945 40.6618 33.5323 40.5264 32.902L40.4703 32.5565C37.5663 35.4792 34.5968 36.9406 31.5573 36.9406C30.4508 36.9406 29.3303 36.7305 28.205 36.3103C27.8222 36.1189 27.43 35.8807 27.0285 35.5959C25.5578 34.41 24.8201 33 24.8201 31.3565V31.2398C24.8201 30.0352 25.2216 28.7746 26.0247 27.458C26.6923 26.4448 27.6494 25.5204 28.8914 24.68C29.6758 24.1477 30.5255 23.6575 31.4406 23.2186C32.5285 22.6863 33.8591 22.1774 35.4232 21.7012C36.6465 21.3557 37.5429 21.1876 38.1172 21.1876C38.7662 21.0942 39.5132 20.9682 40.3536 20.8141V18.7784C40.3536 17.882 40.1435 16.8502 39.7233 15.6829C39.5692 15.3561 39.3591 14.9966 39.093 14.5951C38.7475 14.1188 38.2713 13.7827 37.6596 13.5913C37.5429 13.5352 37.048 13.4979 36.1702 13.4745L25.9126 13.3018L25.8846 13.2738V10.8973L25.9126 10.8693H25.9313ZM30.5722 29.8672V29.8952C30.5722 30.8523 30.8757 31.7768 31.4873 32.6732C32.0989 33.4202 32.9207 33.7891 33.9525 33.7891C34.7742 33.7891 35.6333 33.5416 36.5298 33.042L40.3676 30.1753V23.2419C38.7615 23.5501 37.3375 23.9096 36.1002 24.3298C34.5315 24.8434 33.4529 25.343 32.86 25.8192C32.2297 26.3141 31.7208 26.8417 31.3426 27.3973C30.829 28.2003 30.5675 29.0221 30.5675 29.8625L30.5722 29.8672Z" fill="#4A180E"/>
<path d="M69.8987 10.9533H70.4449C73.0409 10.9533 75.2866 11.9105 77.1775 13.82C79.0311 15.8837 79.9556 18.2602 79.9556 20.9542V30.3808C79.9556 33.0561 80.4785 34.6388 81.5337 35.1384C81.5337 35.2551 81.9165 35.3765 82.6822 35.5119H85.661L85.745 35.596V36.9733L85.661 37.0573H78.5829C76.6359 37.0573 75.3613 35.6333 74.773 32.7899C74.6983 32.4631 74.6563 32.1223 74.6563 31.7581V21.6125C74.6563 18.2695 73.4611 16.1032 71.0752 15.1087C70.0994 14.7632 69.0769 14.5951 68.0078 14.5951C66.0421 14.6511 64.0999 15.6363 62.1903 17.5459C61.4853 18.4049 61.1304 19.264 61.1304 20.1231V37.0573L61.0464 37.1414H55.8872L55.7705 37.0573V17.1723C55.7705 15.4915 55.0841 14.357 53.7068 13.764L52.703 13.6193H50.2938L50.2098 13.5352V11.2988L50.2938 11.2148H56.7976C58.4411 11.2148 59.7111 12.1206 60.6075 13.9368L60.8643 14.8239C63.6703 12.3026 66.6818 11.014 69.8893 10.9533H69.8987Z" fill="#4A180E"/>
<path d="M91.0022 7.11546H91.0863V7.17149C91.0863 8.5675 92.7858 9.75808 96.1847 10.7526C97.0251 11 97.9496 11.2288 98.9628 11.4389L100.195 11.3549C104.052 11.3549 107.367 12.9236 110.14 16.0565C112.124 18.5777 113.119 21.3184 113.119 24.2785V24.596C113.119 28.5692 111.447 31.9775 108.105 34.8256C105.658 36.6231 103.025 37.5196 100.195 37.5196C97.366 37.5196 94.8448 36.6511 92.4589 34.9143V41.9644C92.4589 43.6639 91.9127 45.1719 90.8248 46.4933C90.1385 47.1236 89.3728 47.441 88.5324 47.441H81.571L81.4869 47.357V46.0404L81.571 45.9563H84.1762C85.5723 45.9563 86.4967 45.1719 86.9543 43.6079C87.0897 43.0522 87.155 42.5107 87.155 41.9737V27.7335C87.155 27.0098 87.211 26.3888 87.3278 25.8706L87.2998 24.8667V24.0917C87.2998 21.267 88.2942 18.5917 90.2785 16.0705C91.4831 14.7538 92.3516 13.9508 92.8838 13.6613L93.9156 12.975C93.0005 12.7088 92.3002 12.2279 91.824 11.5416C91.2497 10.6265 90.9649 9.64136 90.9649 8.59085V8.07726L90.9929 7.12947L91.0022 7.11546ZM93.178 24.5072C93.178 27.8876 94.2378 30.6796 96.3575 32.874C97.5014 33.9245 98.7527 34.4521 100.111 34.4521C101.946 34.4521 103.58 33.3829 105.014 31.2445C106.237 29.2602 106.849 26.9958 106.849 24.4512C106.849 21.3184 105.924 18.6617 104.071 16.486C102.791 15.1694 101.442 14.5111 100.032 14.5111C97.8142 14.5111 95.9513 15.9351 94.4432 18.7785C93.6028 20.632 93.1826 22.5416 93.1826 24.5072H93.178Z" fill="#4A180E"/>
<path d="M115.229 10.8693H126.603C127.56 10.8693 128.676 11.1261 129.955 11.6443C131.827 12.4847 133.153 13.792 133.938 15.5709C134.148 16.0845 134.311 16.5934 134.423 17.0883C134.596 17.91 134.68 18.5497 134.68 19.0072L134.708 19.7542C137.822 19.1053 139.657 18.7037 140.208 18.5497C141.375 18.1295 142.146 17.5272 142.529 16.7428C142.72 16.3413 142.813 15.9771 142.813 15.6549V15.5709H142.841C143.07 16.1265 143.187 16.6681 143.187 17.205C143.187 18.601 142.431 19.8103 140.922 20.8421C140.465 21.1456 139.956 21.3977 139.405 21.5891C138.966 21.7245 138.364 21.8459 137.598 21.9626C136.566 22.1541 135.6 22.3268 134.703 22.4762V31.5293C134.703 32.3697 134.848 33.2008 135.133 34.0225C135.287 34.3867 135.516 34.7275 135.819 35.0543C136.24 35.3998 136.669 35.5726 137.108 35.5726H138.425L138.453 35.6006V37.09L138.425 37.118H133.896C132.14 37.118 130.917 36.1702 130.226 34.2793C130.091 33.9945 129.96 33.5323 129.824 32.902L129.768 32.5565C126.864 35.4792 123.895 36.9406 120.855 36.9406C119.749 36.9406 118.628 36.7305 117.503 36.3103C117.12 36.1189 116.728 35.8807 116.327 35.5959C114.856 34.41 114.118 33 114.118 31.3565V31.2398C114.118 30.0352 114.52 28.7746 115.323 27.458C115.99 26.4448 116.947 25.5204 118.189 24.68C118.974 24.1477 119.824 23.6575 120.739 23.2186C121.827 22.6863 123.157 22.1774 124.721 21.7012C125.945 21.3557 126.841 21.1876 127.415 21.1876C128.064 21.0942 128.811 20.9682 129.652 20.8141V18.7784C129.652 17.882 129.442 16.8502 129.021 15.6829C128.867 15.3561 128.657 14.9966 128.391 14.5951C128.046 14.1188 127.569 13.7827 126.958 13.5913C126.841 13.5352 126.346 13.4979 125.468 13.4745L115.211 13.3018L115.183 13.2738V10.8973L115.211 10.8693H115.229ZM119.87 29.8672V29.8952C119.87 30.8523 120.174 31.7768 120.785 32.6732C121.397 33.4202 122.219 33.7891 123.251 33.7891C124.072 33.7891 124.931 33.5416 125.828 33.042L129.666 30.1753V23.2419C128.06 23.5501 126.636 23.9096 125.398 24.3298C123.829 24.8434 122.751 25.343 122.158 25.8192C121.528 26.3141 121.019 26.8417 120.641 27.3973C120.127 28.2003 119.866 29.0221 119.866 29.8625L119.87 29.8672Z" fill="#4A180E"/>
<path d="M138.971 2.0123H146.25C147.856 2.0123 149.037 3.06281 149.803 5.16383C150.032 6.02291 150.148 6.76994 150.148 7.40025V11.5836H154.761L154.845 11.6677V13.9881L154.761 14.0722H150.148V30.7776C150.148 32.3837 150.807 33.4716 152.123 34.0459C152.487 34.1813 152.964 34.2466 153.557 34.2466H156.106L156.19 34.3307V36.8799L156.106 36.9359H149.429C148.015 36.9359 146.791 36.3243 145.759 35.101C145.054 34.2606 144.7 32.8926 144.7 31.0017V8.05857C144.7 5.95755 143.943 4.66892 142.435 4.18802L141.548 4.10398H138.971L138.887 4.01994V2.10101L138.971 2.01697V2.0123Z" fill="#4A180E"/>
<path d="M156.517 11.6116H162.909C164.286 11.6116 165.439 12.326 166.378 13.7593C166.872 14.7351 167.125 15.9164 167.125 17.3124V31.1511C167.027 33.3875 167.783 34.5921 169.389 34.7602L170.103 34.8442H171.308L171.392 34.9003V36.9079L171.308 36.992H166.121C164.286 36.992 163.035 36.0161 162.367 34.0692C162.04 33.1121 161.881 32.197 161.881 31.3192V17.5085C161.881 15.8277 161.232 14.7305 159.934 14.2122C159.57 14.1189 159.257 14.0675 158.987 14.0675H156.521L156.437 14.0115V11.663L156.521 11.607L156.517 11.6116Z" fill="#4A180E"/>
<path d="M198.276 11.8404L198.677 11.7844H198.733C199.079 11.7844 199.373 12.2046 199.62 13.045L199.592 13.2458C199.494 13.3205 199.135 13.4839 198.504 13.7313C198.103 13.9041 197.683 14.0862 197.244 14.2776C196.786 14.4877 196.021 14.9546 194.951 15.6829C194.246 16.0658 193.574 16.6214 192.944 17.3451C192.332 18.2228 192.029 19.0166 192.029 19.7216V36.9733L191.973 37.0293H186.673L186.617 36.9733V17.7466C186.617 15.7203 185.959 14.441 184.642 13.9088C184.241 13.8154 183.858 13.764 183.498 13.764H181.033L180.977 13.708V11.4155L181.033 11.3875H187.509C188.998 11.3875 190.194 12.0552 191.09 13.3952C191.492 14.1235 191.692 14.7912 191.692 15.4028V15.4869C193.144 14.3009 194.681 13.3205 196.305 12.5361C197.071 12.1159 197.729 11.8871 198.28 11.8498L198.276 11.8404Z" fill="#4A180E"/>
<path d="M217.316 37.0573H216.802C214.225 37.0573 211.988 36.1095 210.097 34.2186C208.262 32.1736 207.347 29.8065 207.347 27.1125V17.7419C207.347 15.0853 206.82 13.5212 205.769 13.0403C205.769 12.9049 205.386 12.7742 204.625 12.6388H201.675L201.591 12.5548V11.2101L201.675 11.1261H208.697C210.644 11.1261 211.904 12.5408 212.479 15.3655C212.572 15.6923 212.623 16.0331 212.623 16.3973V26.4542C212.623 29.7785 213.8 31.9355 216.148 32.93C217.143 33.2755 218.156 33.4436 219.188 33.4436C220.715 33.4436 222.428 32.4958 224.319 30.6049C225.024 29.7458 225.379 28.8867 225.379 28.0276V11.2101L225.463 11.1261H230.594L230.678 11.2101V30.955C230.678 32.6358 231.364 33.7751 232.742 34.3633L233.746 34.4801H236.122L236.206 34.5641V36.8005L236.122 36.8846H229.674C228.049 36.8846 226.789 35.9881 225.892 34.1906L225.636 33.3035C222.848 35.8061 220.075 37.0573 217.325 37.0573H217.316Z" fill="#4A180E"/>
<path d="M261.437 30.927C261.895 33.1448 263.024 34.6902 264.817 35.5679C265.237 35.7033 265.574 35.7687 265.821 35.7687H266.708L266.825 35.8527V37.1414L266.708 37.2254H259.915C257.87 37.2254 256.591 36.3383 256.077 34.5594L256.021 34.1859V34.0692L255.792 33.8404H255.447C253.5 35.8061 250.507 36.7912 246.478 36.7912C242.448 36.7912 239.638 35.5026 237.481 32.9207C235.492 30.5348 234.502 27.43 234.502 23.6061C234.502 19.7823 235.524 16.6354 237.569 14.2636C239.824 11.6863 243.013 10.393 247.141 10.393C250.026 10.393 252.795 10.9393 255.451 12.0272V7.17148C255.451 5.35526 255.176 4.0573 254.62 3.27292C253.934 2.29711 252.664 1.81154 250.81 1.81154H249.466V0.723679H255.456C257.823 0.723679 259.411 1.12521 260.214 1.92826C261.035 2.78735 261.446 4.53353 261.446 7.17148V30.927H261.437ZM255.447 14.1936C252.79 13.1057 250.689 12.5594 249.144 12.5594C243.583 12.5594 240.805 16.2479 240.805 23.6201C240.805 26.9071 241.417 29.5123 242.64 31.4406C243.975 33.579 245.917 34.6482 248.457 34.6482C251.343 34.6482 253.673 33.5696 255.451 31.4079V14.1936H255.447Z" fill="#4A180E"/>
<path d="M280.57 11.8404L280.972 11.7844H281.028C281.373 11.7844 281.667 12.2046 281.915 13.045L281.887 13.2458C281.789 13.3205 281.429 13.4839 280.799 13.7313C280.397 13.9041 279.977 14.0862 279.538 14.2776C279.081 14.4877 278.315 14.9546 277.246 15.6829C276.541 16.0658 275.869 16.6214 275.238 17.3451C274.627 18.2228 274.323 19.0166 274.323 19.7216V36.9733L274.267 37.0293H268.968L268.912 36.9733V17.7466C268.912 15.7203 268.254 14.441 266.937 13.9088C266.535 13.8154 266.153 13.764 265.793 13.764H263.328L263.272 13.708V11.4155L263.328 11.3875H269.804C271.293 11.3875 272.488 12.0552 273.385 13.3952C273.786 14.1235 273.987 14.7912 273.987 15.4028V15.4869C275.439 14.3009 276.975 13.3205 278.6 12.5361C279.366 12.1159 280.024 11.8871 280.575 11.8498L280.57 11.8404Z" fill="#4A180E"/>
<path d="M284.922 10.8693H291.626C292.579 10.8693 293.699 11.1261 294.979 11.6443C296.851 12.4847 298.177 13.792 298.961 15.5709C299.171 16.0845 299.335 16.5934 299.447 17.0883C299.62 17.91 299.704 18.5497 299.704 19.0072L299.732 19.7542C302.846 19.1053 304.681 18.7037 305.232 18.5497C306.399 18.1295 307.169 17.5272 307.552 16.7428C307.743 16.3413 307.842 15.9771 307.842 15.6549V15.5709H307.87C308.098 16.1265 308.215 16.6681 308.215 17.205C308.215 18.601 307.459 19.8103 305.951 20.8421C305.493 21.1456 304.984 21.3977 304.433 21.5891C303.994 21.7245 303.392 21.8459 302.626 21.9626C301.594 22.1541 300.628 22.3268 299.732 22.4762V31.5293C299.732 32.3697 299.876 33.2008 300.161 34.0225C300.315 34.3867 300.544 34.7275 300.847 35.0543C301.268 35.3998 301.697 35.5726 302.136 35.5726H303.453L303.481 35.6006V37.09L303.453 37.118H298.924C297.164 37.118 295.945 36.1702 295.254 34.2793C295.119 33.9945 294.988 33.5323 294.853 32.902L294.797 32.5565C291.892 35.4792 288.923 36.9406 285.884 36.9406C284.772 36.9406 283.656 36.7305 282.531 36.3103C282.148 36.1189 281.756 35.8807 281.355 35.5959C279.884 34.41 279.146 33 279.146 31.3565V31.2398C279.146 30.0352 279.548 28.7746 280.351 27.458C281.018 26.4448 281.976 25.5204 283.218 24.68C284.002 24.1477 284.852 23.6575 285.767 23.2186C286.855 22.6863 288.185 22.1774 289.749 21.7012C290.973 21.3557 291.869 21.1876 292.443 21.1876C293.092 21.0942 293.839 20.9682 294.68 20.8141V18.7784C294.68 17.882 294.47 16.8502 294.049 15.6829C293.895 15.3561 293.685 14.9966 293.419 14.5951C293.074 14.1188 292.597 13.7827 291.986 13.5913C291.869 13.5352 291.374 13.4979 290.496 13.4745L284.908 13.3018L284.88 13.2738V10.8973L284.908 10.8693H284.922ZM284.894 29.8672V29.8952C284.894 30.8523 285.197 31.7768 285.809 32.6732C286.42 33.4202 287.242 33.7891 288.274 33.7891C289.096 33.7891 289.955 33.5416 290.851 33.042L294.689 30.1753V23.2419C293.083 23.5501 291.664 23.9096 290.422 24.3298C288.853 24.8434 287.774 25.343 287.186 25.8192C286.556 26.3141 286.047 26.8417 285.669 27.3973C285.155 28.2003 284.894 29.0221 284.894 29.8625V29.8672Z" fill="#4A180E"/>
<path d="M304.555 10.8693H315.928C316.881 10.8693 318.001 11.1261 319.28 11.6443C321.153 12.4847 322.479 13.792 323.263 15.5709C323.473 16.0845 323.636 16.5934 323.749 17.0883C323.921 17.91 324.005 18.5497 324.005 19.0072L324.033 19.7542C327.148 19.1053 328.982 18.7037 329.533 18.5497C330.701 18.1295 331.471 17.5272 331.854 16.7428C332.045 16.3413 332.139 15.9771 332.139 15.6549V15.5709H332.167C332.395 16.1265 332.512 16.6681 332.512 17.205C332.512 18.601 331.756 19.8103 330.248 20.8421C329.79 21.1456 329.281 21.3977 328.73 21.5891C328.291 21.7245 327.689 21.8459 326.923 21.9626C325.892 22.1541 324.925 22.3268 324.029 22.4762V31.5293C324.029 32.3697 324.173 33.2008 324.458 34.0225C324.612 34.3867 324.841 34.7275 325.145 35.0543C325.565 35.3998 325.994 35.5726 326.433 35.5726H327.75L327.778 35.6006V37.09L327.75 37.118H323.221C321.461 37.118 320.242 36.1702 319.551 34.2793C319.416 33.9945 319.285 33.5323 319.15 32.902L319.094 32.5565C316.19 35.4792 313.22 36.9406 310.181 36.9406C309.074 36.9406 307.954 36.7305 306.828 36.3103C306.445 36.1189 306.053 35.8807 305.652 35.5959C304.181 34.41 303.443 33 303.443 31.3565V31.2398C303.443 30.0352 303.845 28.7746 304.648 27.458C305.316 26.4448 306.273 25.5204 307.515 24.68C308.299 24.1477 309.149 23.6575 310.064 23.2186C311.152 22.6863 312.482 22.1774 314.047 21.7012C315.27 21.3557 316.166 21.1876 316.741 21.1876C317.389 21.0942 318.137 20.9682 318.977 20.8141V18.7784C318.977 17.882 318.767 16.8502 318.347 15.6829C318.193 15.3561 317.982 14.9966 317.716 14.5951C317.371 14.1188 316.895 13.7827 316.283 13.5913C316.166 13.5352 315.671 13.4979 314.794 13.4745L304.536 13.3018L304.508 13.2738V10.8973L304.536 10.8693H304.555ZM309.195 29.8672V29.8952C309.195 30.8523 309.499 31.7768 310.111 32.6732C310.722 33.4202 311.544 33.7891 312.576 33.7891C313.398 33.7891 314.257 33.5416 315.153 33.042L318.991 30.1753V23.2419C317.385 23.5501 315.961 23.9096 314.724 24.3298C313.155 24.8434 312.076 25.343 311.488 25.8192C310.858 26.3141 310.353 26.8417 309.971 27.3973C309.457 28.2003 309.195 29.0221 309.195 29.8625V29.8672Z" fill="#4A180E"/>
<path d="M330.897 2.04031H336.598C338.797 2.04031 340.048 3.56705 340.351 6.62521V16.57C340.351 17.3544 340.361 19.1286 340.379 21.902C343.036 20.66 344.745 20.0297 345.511 20.011L346.426 19.8103H346.71C348.966 19.8103 350.32 18.9792 350.777 17.3171C351.16 15.4448 351.533 14.0208 351.893 13.0497C352.486 11.5789 353.938 10.7946 356.249 10.7012C355.161 11.5229 354.405 12.5828 353.985 13.8807C353.831 16.7848 353.401 18.9138 352.696 20.2725L351.519 21.5051C353.793 22.8031 354.928 24.5026 354.928 26.6036V31.9915C354.928 34.284 355.348 35.5446 356.188 35.7734L357.019 35.9461H359.027L359.2 36.1189V36.7492L359.027 36.9219H353.929C351.963 36.6931 350.978 35.5166 350.978 33.3969V26.9771C350.978 25.0115 349.937 23.7088 347.854 23.0785L346.136 22.9058C343.059 23.1346 341.168 24.0543 340.463 25.6558L340.347 26.0853V32.0756C340.347 34.6528 339.334 36.2683 337.312 36.9172L336.224 37.0013H330.724V34.8816H333.217C334.571 34.8816 335.365 33.9478 335.594 32.0756V7.05942C335.594 5.07512 334.618 4.08064 332.671 4.08064H330.892L330.719 3.90789V2.21773L330.892 2.04498L330.897 2.04031Z" fill="#4A180E"/>
<path d="M368.248 11.7844H376.414L376.498 11.8684V14.0442L376.414 14.1282H368.706C367.445 14.1282 366.451 14.6138 365.727 15.5896C365.554 15.9724 365.47 16.3179 365.47 16.6214V16.7054C365.47 18.2135 366.749 19.6469 369.308 21.0055C370.055 21.4631 371.502 22.2475 373.664 23.354C374.505 23.8676 375.443 24.6613 376.47 25.7305C377.619 27.2386 378.188 28.5319 378.188 29.601C378.188 31.5667 377.978 32.7339 377.558 33.0981C376.372 34.8162 374.855 35.9648 373.001 36.5344C372.142 36.7632 371.213 36.8799 370.223 36.8799H361.931L361.847 36.7959V35.4792L361.931 35.3952H369.649C371.367 35.3952 372.684 34.7089 373.603 33.3315C373.832 32.874 373.949 32.4538 373.949 32.0709V31.6414C373.949 30.3994 373.174 29.2462 371.628 28.1724C369.201 27.1592 366.824 25.8145 364.494 24.1337C362.277 22.1868 361.17 20.2959 361.17 18.461V18.1155C361.17 16.6261 361.894 15.09 363.35 13.5026C364.784 12.3587 366.418 11.7844 368.248 11.7844Z" fill="#4A180E"/>
<path d="M378.128 2.18506H384.487C386.284 2.18506 387.564 3.38031 388.325 5.76613L388.497 7.25552V14.5344C391.21 12.2606 393.419 11.1261 395.118 11.1261H396.033C399.759 11.1261 402.509 13.1524 404.288 17.2004C404.727 18.4983 404.946 19.8663 404.946 21.2997V30.871C404.946 33.4482 405.576 35.0357 406.837 35.6286L407.411 35.7127H410.306L410.479 35.8854V37.118L410.306 37.2908H403.886C402.168 37.2908 400.954 36.2963 400.249 34.312C399.964 33.0514 399.82 32.0195 399.82 31.2165V20.8701C399.82 17.6019 398.251 15.3608 394.978 14.7958C394.632 14.7352 393.923 14.6838 393.573 14.7118C392.405 14.7912 390.561 15.4121 389.245 17.952C388.638 19.124 388.497 22.0514 388.497 22.0514V31.9682C388.497 34.4707 387.456 36.1329 385.374 36.9546L384.225 37.1274H378.123L377.95 36.9546V35.694L378.123 35.5493H380.5C381.779 35.5493 382.629 34.6015 383.049 32.7105C383.222 32.3464 383.306 31.8982 383.306 31.3659V17.0369L383.39 16.9529L383.306 16.8689V7.77377C383.077 5.59805 382.054 4.50552 380.238 4.50552H378.118L377.946 4.36078V2.35781L378.118 2.18506H378.128Z" fill="#4A180E"/>
<path d="M411.711 10.8693H423.085C424.037 10.8693 425.158 11.1261 426.437 11.6443C428.309 12.4847 429.635 13.792 430.42 15.5709C430.63 16.0845 430.793 16.5934 430.905 17.0883C431.078 17.91 431.162 18.5497 431.162 19.0072L431.19 19.7542C434.304 19.1053 436.139 18.7037 436.69 18.5497C437.857 18.1295 438.628 17.5272 439.01 16.7428C439.202 16.3413 439.295 15.9771 439.295 15.6549V15.5709H439.323C439.552 16.1265 439.669 16.6681 439.669 17.205C439.669 18.601 438.912 19.8103 437.404 20.8421C436.947 21.1456 436.438 21.3977 435.887 21.5891C435.448 21.7245 434.846 21.8459 434.08 21.9626C433.048 22.1541 432.082 22.3268 431.185 22.4762V31.5293C431.185 32.3697 431.33 33.2008 431.615 34.0225C431.769 34.3867 431.998 34.7275 432.301 35.0543C432.721 35.3998 433.151 35.5726 433.59 35.5726H434.906L434.934 35.6006V37.09L434.906 37.118H430.378C428.617 37.118 427.399 36.1702 426.708 34.2793C426.572 33.9945 426.442 33.5323 426.306 32.902L426.25 32.5565C423.346 35.4792 420.377 36.9406 417.337 36.9406C416.231 36.9406 415.11 36.7305 413.985 36.3103C413.602 36.1189 413.21 35.8807 412.808 35.5959C411.338 34.41 410.6 33 410.6 31.3565V31.2398C410.6 30.0352 411.002 28.7746 411.805 27.458C412.472 26.4448 413.429 25.5204 414.671 24.68C415.456 24.1477 416.305 23.6575 417.221 23.2186C418.308 22.6863 419.639 22.1774 421.203 21.7012C422.426 21.3557 423.323 21.1876 423.897 21.1876C424.546 21.0942 425.293 20.9682 426.134 20.8141V18.7784C426.134 17.882 425.923 16.8502 425.503 15.6829C425.349 15.3561 425.139 14.9966 424.873 14.5951C424.527 14.1188 424.051 13.7827 423.44 13.5913C423.323 13.5352 422.828 13.4979 421.95 13.4745L411.693 13.3018L411.665 13.2738V10.8973L411.693 10.8693H411.711ZM416.352 29.8672V29.8952C416.352 30.8523 416.656 31.7768 417.267 32.6732C417.879 33.4202 418.701 33.7891 419.732 33.7891C420.554 33.7891 421.413 33.5416 422.31 33.042L426.148 30.1753V23.2419C424.541 23.5501 423.117 23.9096 421.88 24.3298C420.311 24.8434 419.233 25.343 418.645 25.8192C418.014 26.3141 417.51 26.8417 417.127 27.3973C416.614 28.2003 416.352 29.0221 416.352 29.8625V29.8672Z" fill="#4A180E"/>
<path d="M436.48 10.8693H447.853C448.806 10.8693 449.927 11.1261 451.206 11.6443C453.078 12.4847 454.404 13.792 455.188 15.5709C455.399 16.0845 455.562 16.5934 455.674 17.0883C455.847 17.91 455.931 18.5497 455.931 19.0072L455.959 19.7542C459.073 19.1053 460.908 18.7037 461.459 18.5497C462.626 18.1295 463.396 17.5272 463.779 16.7428C463.971 16.3413 464.064 15.9771 464.064 15.6549V15.5709H464.092C464.321 16.1265 464.438 16.6681 464.438 17.205C464.438 18.601 463.681 19.8103 462.173 20.8421C461.716 21.1456 461.207 21.3977 460.656 21.5891C460.217 21.7245 459.615 21.8459 458.849 21.9626C457.817 22.1541 456.851 22.3268 455.954 22.4762V31.5293C455.954 32.3697 456.099 33.2008 456.384 34.0225C456.538 34.3867 456.767 34.7275 457.07 35.0543C457.49 35.3998 457.92 35.5726 458.359 35.5726H459.675L459.703 35.6006V37.09L459.675 37.118H455.146C453.386 37.118 452.168 36.1702 451.477 34.2793C451.341 33.9945 451.21 33.5323 451.075 32.902L451.019 32.5565C448.115 35.4792 445.146 36.9406 442.106 36.9406C441 36.9406 439.879 36.7305 438.754 36.3103C438.371 36.1189 437.979 35.8807 437.577 35.5959C436.106 34.41 435.369 33 435.369 31.3565V31.2398C435.369 30.0352 435.77 28.7746 436.573 27.458C437.241 26.4448 438.198 25.5204 439.44 24.68C440.224 24.1477 441.074 23.6575 441.989 23.2186C443.077 22.6863 444.408 22.1774 445.972 21.7012C447.195 21.3557 448.092 21.1876 448.666 21.1876C449.315 21.0942 450.062 20.9682 450.902 20.8141V18.7784C450.902 17.882 450.692 16.8502 450.272 15.6829C450.118 15.3561 449.908 14.9966 449.642 14.5951C449.296 14.1188 448.82 13.7827 448.208 13.5913C448.092 13.5352 447.597 13.4979 446.719 13.4745L436.461 13.3018L436.433 13.2738V10.8973L436.461 10.8693H436.48ZM441.121 29.8672V29.8952C441.121 30.8523 441.424 31.7768 442.036 32.6732C442.648 33.4202 443.469 33.7891 444.501 33.7891C445.323 33.7891 446.182 33.5416 447.078 33.042L450.916 30.1753V23.2419C449.31 23.5501 447.886 23.9096 446.649 24.3298C445.08 24.8434 444.002 25.343 443.413 25.8192C442.783 26.3141 442.279 26.8417 441.896 27.3973C441.382 28.2003 441.121 29.0221 441.121 29.8625V29.8672Z" fill="#4A180E"/>
<path d="M500.379 20.3799C500.379 15.3935 498.726 12.9003 495.421 12.9003C492.881 12.9003 490.817 14.1048 489.23 16.5093C489.384 17.0229 489.384 18.3162 489.23 20.3799V37.0013H483.669V20.3799C483.669 15.3935 482.016 12.9003 478.711 12.9003C476.535 12.9003 474.471 13.8761 472.52 15.823V36.9966H466.931V17.6019C466.931 15.7296 466.674 14.6885 466.156 14.4784C465.507 13.8667 464.139 13.6006 462.056 13.6753H460.824V10.9533H466.926C469.774 10.9533 471.53 11.7003 472.197 13.1897H472.51C474.574 11.3362 477.259 10.4117 480.564 10.4117C484.192 10.4117 486.666 11.7003 487.988 14.2823C490.224 11.705 493.32 10.4117 497.274 10.4117C502.793 10.4117 505.669 13.4605 505.898 19.5535H505.926V30.2687C505.926 32.944 506.481 34.5268 507.588 35.0263C507.588 35.1431 507.989 35.2644 508.792 35.3998H511.916L512 35.4839V36.8612L511.916 36.9453H504.492C502.447 36.9453 501.112 35.5212 500.482 32.6779C500.407 32.351 500.365 32.0102 500.365 31.646V20.3846L500.379 20.3799Z" fill="#4A180E"/>
<path d="M166.452 7.4703C166.452 9.01571 165.196 10.2717 163.651 10.2717C162.105 10.2717 160.849 9.01571 160.849 7.4703C160.849 5.92488 163.651 0 163.651 0C163.651 0 166.452 5.92488 166.452 7.4703Z" fill="#D42300"/>
</svg>
